<svg xmlns="http://www.w3.org/2000/svg" viewBox="0 0 180 180" width="180" height="180" preserveAspectRatio="xMidYMid meet" style="width: 100%; height: 100%; transform: translate3d(0px, 0px, 0px);"><defs><clipPath id="__lottie_element_308"><rect width="180" height="180" x="0" y="0"></rect></clipPath></defs><g clip-path="url(#__lottie_element_308)"><g transform="matrix(1,0,0,1,-513.1939697265625,-543.3740234375)" opacity="1" style="display: block;"><g opacity="1" transform="matrix(1,0,0,1,603.1939697265625,633.3740234375)"><path fill="rgb(255,255,255)" fill-opacity="1" d=" M-71.61299896240234,-4.883999824523926 C-54.374000549316406,-5.6570000648498535 -39.9119987487793,-11.008000373840332 -28.225000381469727,-20.937000274658203 C-13.633999824523926,-33.316001892089844 -5.788000106811523,-50.20800018310547 -4.690000057220459,-71.61399841308594 C-4.690000057220459,-71.61399841308594 4.885000228881836,-71.61399841308594 4.885000228881836,-71.61399841308594 C6.238999843597412,-49.95000076293945 14.071999549865723,-33.05799865722656 28.385000228881836,-20.937000274658203 C39.92499923706055,-11.072999954223633 54.334999084472656,-5.7220001220703125 71.61399841308594,-4.883999824523926 C71.61399841308594,-4.883999824523926 71.61399841308594,4.690999984741211 71.61399841308594,4.690999984741211 C54.334999084472656,5.531000137329102 39.89400100708008,10.888999938964844 28.288000106811523,20.766000747680664 C13.717000007629395,33.229000091552734 5.882999897003174,50.176998138427734 4.788000106811523,71.61399841308594 C4.788000106811523,71.61399841308594 -4.785999774932861,71.61399841308594 -4.785999774932861,71.61399841308594 C-5.559999942779541,54.375999450683594 -10.944000244140625,39.91299819946289 -20.937000274658203,28.22599983215332 C-33.38100051879883,13.569000244140625 -50.27299880981445,5.724999904632568 -71.61299896240234,4.690999984741211 C-71.61299896240234,4.690999984741211 -71.61299896240234,-4.883999824523926 -71.61299896240234,-4.883999824523926z"></path></g></g></g></svg>